<svg version="1.1" id="Layer_1" xmlns="http://www.w3.org/2000/svg" xmlns:xlink="http://www.w3.org/1999/xlink" x="0px" y="0px"
	 width="100%" viewBox="0 0 496 496" enable-background="new 0 0 496 496" xml:space="preserve">
<path fill="#000000" opacity="1.000000" stroke="none" 
	d="
M310.770020,242.803970 
	C315.085846,235.869537 319.202698,229.238678 323.292725,222.651047 
	C321.717865,220.526291 319.727997,221.377136 318.048065,221.323990 
	C313.719025,221.187042 309.382904,221.276688 305.049591,221.270554 
	C297.011414,221.259201 297.075317,221.112244 296.953735,213.240250 
	C296.881409,208.556290 298.477203,206.714386 303.314728,206.787231 
	C317.811310,207.005539 332.313354,206.853653 346.813171,206.878845 
	C348.262451,206.881363 349.850433,206.527832 351.693726,208.631256 
	C341.768616,224.780991 331.679230,241.197983 320.944611,258.664917 
	C329.629791,258.664917 337.061218,258.647522 344.492462,258.670258 
	C350.796844,258.689545 350.696259,258.711670 350.840820,267.717438 
	C350.918915,272.583832 347.765015,272.370941 344.449829,272.366058 
	C329.116669,272.343445 313.783386,272.373169 298.450165,272.370850 
	C296.200745,272.370514 293.722717,272.885101 292.831909,269.755249 
	C285.466980,274.202362 278.139771,274.911041 270.621002,271.420135 
	C268.724976,270.539856 267.481842,272.159729 265.936310,272.188263 
	C258.941010,272.317322 251.942047,272.327606 244.945419,272.266418 
	C242.090500,272.241455 241.802826,269.726013 241.049545,267.745941 
	C238.064072,259.898132 238.065414,259.897614 229.678589,259.910828 
	C229.178589,259.911591 228.668304,259.978485 228.180130,259.902802 
	C219.804138,258.604340 213.015991,259.886749 211.302750,269.912201 
	C211.024551,271.540131 209.629501,272.316864 207.926575,272.320099 
	C207.260117,272.321381 206.593704,272.346466 205.927261,272.361145 
	C187.531296,272.766510 187.538788,272.760834 176.507874,258.215027 
	C174.616501,255.720978 172.630569,253.298615 170.165344,250.181961 
	C168.871552,256.527618 169.298843,262.109894 169.593750,267.619202 
	C169.780136,271.100769 168.837723,272.339722 165.267380,272.424255 
	C153.502289,272.702759 153.550461,272.818237 153.582001,261.223633 
	C153.626450,244.890564 153.728317,228.555450 153.505569,212.225311 
	C153.448151,208.015884 154.810226,206.576843 158.914749,206.807251 
	C166.551483,207.235962 174.216644,206.334518 181.858749,207.567276 
	C190.900238,209.025757 196.739609,213.911407 198.793182,222.269531 
	C200.709656,230.069641 196.897537,239.204575 189.779541,243.933533 
	C188.976715,244.466904 188.258331,245.127365 187.169846,245.991669 
	C190.078384,250.629623 193.364273,254.655075 197.513138,258.520294 
	C201.736923,252.075272 203.598999,245.116852 206.395203,238.606644 
	C209.877533,230.498947 213.199158,222.297577 216.050339,213.952225 
	C217.901382,208.534302 220.812439,206.125687 226.676483,206.744858 
	C230.664658,207.165939 234.372421,206.446747 236.259354,211.630447 
	C240.181015,222.403809 244.760162,232.937531 249.051239,243.576935 
	C250.042252,246.034088 250.961517,248.520187 252.049667,251.345718 
	C253.323517,237.142258 251.776215,223.355515 252.135086,209.564926 
	C252.242401,205.441010 253.682449,204.277206 257.408783,204.628891 
	C260.521454,204.922668 263.705109,204.198303 267.043610,205.207809 
	C268.255707,214.339188 266.347565,223.666153 268.188690,233.082809 
	C277.947083,229.258759 287.198395,228.493408 294.598846,236.263214 
	C300.653046,242.619629 302.775391,250.571182 300.410736,259.662537 
	C303.797516,254.144211 307.184265,248.625885 310.770020,242.803970 
M275.523132,243.363419 
	C274.565918,243.599335 273.519867,243.662384 272.666809,244.100937 
	C268.861511,246.057373 266.889954,249.269608 267.656525,253.487167 
	C268.368408,257.403900 270.943085,260.089111 275.045990,260.563721 
	C279.551880,261.084930 282.187561,258.333069 283.811768,254.554077 
	C285.785614,249.961563 282.471771,245.153671 275.523132,243.363419 
M169.452332,232.179306 
	C169.577744,233.867081 169.635315,235.584290 172.007309,235.633881 
	C175.118179,235.698929 177.990540,234.995346 179.950089,232.442169 
	C181.938461,229.851471 181.930557,226.841110 180.609009,223.990997 
	C179.050232,220.629349 175.905914,220.060074 172.639160,220.322006 
	C168.984451,220.615067 169.626434,223.631577 169.450119,225.979706 
	C169.314682,227.783386 169.422989,229.605347 169.452332,232.179306 
M223.433212,238.941040 
	C223.232620,241.033142 221.446640,242.800537 222.174500,245.317139 
	C225.184280,245.714386 228.186096,246.196609 231.607422,244.752121 
	C230.327957,240.356979 229.646591,236.027969 226.538620,231.996704 
	C225.425797,234.387665 224.530899,236.310364 223.433212,238.941040 
z"/>
</svg>