<svg version="1.1" id="Layer_1" xmlns="http://www.w3.org/2000/svg" xmlns:xlink="http://www.w3.org/1999/xlink" x="0px" y="0px"
	 width="100%" viewBox="0 0 560 1024" enable-background="new 0 0 560 1024" xml:space="preserve">
<path fill="#000000" opacity="1.000000" stroke="none" 
	d="
M320.001221,455.378601 
	C316.006409,455.375732 312.511169,455.375916 309.015930,455.368561 
	C301.193146,455.352081 301.137848,455.350769 301.103607,447.269348 
	C301.042969,432.955750 301.054413,418.641876 301.040863,404.328094 
	C301.035187,398.336334 301.093170,392.343964 301.024414,386.352997 
	C300.986115,383.013977 302.363251,381.616516 305.820190,381.661560 
	C316.636932,381.802582 327.464355,381.467865 338.272797,381.799896 
	C347.291412,382.076935 354.166931,386.406494 358.119019,394.678375 
	C361.735413,402.247528 361.240784,409.542694 355.705872,416.118591 
	C354.247131,417.851654 354.277313,419.193939 355.677094,420.916626 
	C361.329529,427.872955 361.926636,435.510986 357.817261,443.290100 
	C353.463043,451.532776 346.285248,455.404510 336.978424,455.374603 
	C331.485931,455.356964 325.993347,455.375824 320.001221,455.378601 
M322.745239,410.709747 
	C327.553589,410.708038 332.362457,410.661224 337.170135,410.717865 
	C341.568909,410.769653 344.076996,408.554810 344.567810,404.326080 
	C344.984772,400.733734 341.877502,397.601837 337.615143,397.444000 
	C331.819763,397.229340 326.010681,397.407623 320.208038,397.355164 
	C317.435760,397.330109 316.237213,398.526031 316.635193,401.332306 
	C316.844025,402.805054 317.036377,404.316650 316.934174,405.789734 
	C316.684906,409.381866 318.105499,411.137268 322.745239,410.709747 
M323.685638,426.383484 
	C317.015015,426.472473 317.003998,426.483276 317.015015,433.007812 
	C317.016113,433.672211 317.058624,434.338959 317.017456,435.000610 
	C316.812775,438.292053 318.090485,439.890076 321.638977,439.753510 
	C326.780670,439.555573 331.935516,439.712341 337.084564,439.686157 
	C341.334900,439.664551 344.144989,437.705872 344.573730,433.347046 
	C344.946960,429.552032 341.686340,426.576996 337.095642,426.411743 
	C332.948486,426.262482 328.791656,426.381439 323.685638,426.383484 
z"/>
<path fill="#000000" opacity="1.000000" stroke="none" 
	d="
M193.189392,441.261108 
	C192.441086,441.178741 192.109116,441.147461 191.776703,441.141266 
	C181.213516,440.943726 181.090744,440.929230 179.852753,451.144104 
	C179.444336,454.513977 178.103531,455.525574 174.776001,455.435150 
	C162.842514,455.110809 163.988846,456.785645 163.949478,444.823883 
	C163.887054,425.855927 164.025665,406.886475 163.825302,387.920380 
	C163.775436,383.200623 165.244202,381.393066 170.117065,381.612518 
	C177.755386,381.956482 185.421799,381.616882 193.074081,381.724457 
	C205.963516,381.905640 216.810760,389.462494 221.246750,401.195221 
	C225.526749,412.515381 222.568542,424.966827 213.101532,433.463165 
	C210.447662,435.844971 210.282272,437.753387 211.604767,440.751251 
	C213.578979,445.226532 216.066956,449.579315 216.761993,454.764801 
	C212.065201,455.851501 207.751617,455.269684 203.470413,455.265930 
	C200.904785,455.263702 200.553970,452.992065 199.536987,451.326569 
	C197.516205,448.017181 197.652634,443.422363 193.189392,441.261108 
M203.589218,421.079498 
	C210.715652,411.824646 207.493698,400.935577 196.654083,397.978485 
	C191.783508,396.649750 186.759079,397.445618 181.802216,397.470734 
	C180.218704,397.478729 179.340164,398.572784 179.547913,400.131958 
	C180.517502,407.409607 179.737839,414.720703 180.059372,422.007996 
	C180.127060,423.542023 180.328491,425.405487 182.201767,425.417206 
	C189.375458,425.462036 196.936081,427.317993 203.589218,421.079498 
z"/>
<path fill="#000000" opacity="1.000000" stroke="none" 
	d="
M289.369324,420.004089 
	C289.357971,430.492889 289.243896,440.484100 289.388123,450.471619 
	C289.440491,454.097382 288.192902,455.803864 284.479370,455.369751 
	C283.986816,455.312195 283.481293,455.368958 282.981842,455.366119 
	C273.490875,455.312714 273.677032,456.219299 273.928192,446.619080 
	C274.033508,442.595154 272.757324,440.874115 268.538513,441.063812 
	C262.556335,441.332825 256.552246,441.241974 250.560852,441.129395 
	C247.323990,441.068604 246.283264,442.434479 246.191589,445.606354 
	C245.893860,455.908020 244.662109,456.749695 234.094315,455.343933 
	C231.842529,455.044342 230.805969,454.106445 230.811050,451.882935 
	C230.844879,437.067047 230.115509,422.200836 231.102997,407.449280 
	C232.115997,392.316925 246.734589,380.765076 261.619263,381.765015 
	C277.288757,382.817657 289.265991,395.437439 289.368713,411.013702 
	C289.387360,413.844025 289.369720,416.674591 289.369324,420.004089 
M250.028778,425.594360 
	C253.181595,425.603546 256.334412,425.618164 259.487244,425.620941 
	C274.967834,425.634583 274.967865,425.633453 273.774689,410.239594 
	C273.251709,403.492523 268.079346,398.184296 261.294922,397.432068 
	C255.166916,396.752594 249.045532,400.693970 247.116821,406.876373 
	C245.453384,412.208466 246.353653,417.737518 246.434601,423.186035 
	C246.458115,424.768768 247.691788,425.397308 250.028778,425.594360 
z"/>
<path fill="#000000" opacity="1.000000" stroke="none" 
	d="
M394.906219,398.128662 
	C387.104736,396.736572 379.449188,397.397614 371.823914,397.437347 
	C367.426666,397.460236 365.541656,396.316986 365.661926,391.551422 
	C365.937927,380.616211 364.873077,381.742798 375.195374,381.709839 
	C388.680817,381.666748 402.166534,381.677338 415.652039,381.707886 
	C417.617249,381.712311 419.658386,381.320526 422.575287,382.971222 
	C412.810455,401.434662 403.026703,419.933929 392.960571,438.967102 
	C397.383331,440.216309 401.023499,439.581024 404.585236,439.674866 
	C409.077362,439.793304 413.581055,439.853760 418.068146,439.664581 
	C421.713593,439.510895 423.045013,440.992889 423.174377,444.607635 
	C423.559845,455.379791 423.669189,455.378204 413.010559,455.377136 
	C399.524994,455.375763 386.039368,455.384216 372.553864,455.349457 
	C370.755402,455.344818 368.890717,455.694153 367.117950,454.759155 
	C366.214294,452.524292 367.851990,450.964630 368.724731,449.309235 
	C376.719849,434.144897 384.800568,419.025696 392.837738,403.883453 
	C393.764557,402.137329 395.013275,400.510010 394.906219,398.128662 
z"/>
</svg>